<svg xmlns="http://www.w3.org/2000/svg" width="16" height="23" viewBox="0 0 16 23" fill="none">
<path d="M16 20.0137V10.0137C16 8.91367 15.1 8.01367 14 8.01367H2C0.9 8.01367 0 8.91367 0 10.0137V20.0137C0 21.1137 0.9 22.0137 2 22.0137H14C15.1 22.0137 16 21.1137 16 20.0137ZM10 15.0137C10 16.1137 9.1 17.0137 8 17.0137C6.9 17.0137 6 16.1137 6 15.0137C6 13.9137 6.9 13.0137 8 13.0137C9.1 13.0137 10 13.9137 10 15.0137Z" fill="#0E462E"/>
<path d="M13 12.0137C13 11.6137 13 7.41367 13 7.01367C13 4.21367 10.8 2.01367 8 2.01367C5.2 2.01367 3 4.21367 3 7.01367C3 7.41367 3 11.6137 3 12.0137" stroke="#0E462E" stroke-width="2.83333" stroke-miterlimit="10"/>
</svg>
