<svg xmlns="http://www.w3.org/2000/svg" width="20" height="24" viewBox="0 0 20 24" fill="none">
<path d="M8.99708 13.4109L5.97147 10.531L4.68275 11.8848L9.10195 16.0914L15.8355 8.59423L14.4449 7.34521L8.99708 13.4109Z" fill="#0E462E"/>
<path d="M17.6842 3.10049C15.4186 2.69446 13.3321 1.45713 12.29 0.755731C11.6091 0.29743 10.8173 0.0551758 10 0.0551758C9.1828 0.0551758 8.39092 0.29743 7.71008 0.755685C6.66801 1.45708 4.58152 2.69446 2.31585 3.10049C0.973967 3.34097 0 4.50198 0 5.86109V11.4998C0 13.3626 0.521177 15.1784 1.54896 16.897C2.35308 18.2415 3.46718 19.5264 4.86035 20.7161C7.20287 22.7166 9.5225 23.7598 9.62004 23.8032L10 23.9723L10.38 23.8032C10.4775 23.7598 12.7971 22.7166 15.1396 20.7161C16.5328 19.5264 17.647 18.2415 18.451 16.897C19.4789 15.1785 20 13.3626 20 11.4998V5.86114C20.0001 4.50198 19.0261 3.34097 17.6842 3.10049ZM18.1309 11.4999C18.1309 14.277 16.728 16.8894 13.961 19.2647C12.3526 20.6454 10.7196 21.5454 10.0001 21.9107C8.34641 21.0704 1.86918 17.401 1.86918 11.4999V5.86114C1.86918 5.40826 2.1957 5.02101 2.64559 4.94038C5.24835 4.47395 7.58984 3.0898 8.75384 2.30632C9.12506 2.05641 9.55599 1.9243 10 1.9243C10.4441 1.9243 10.8751 2.05641 11.2463 2.30628C12.4103 3.0898 14.7517 4.47386 17.3545 4.94029C17.8043 5.02091 18.1309 5.40816 18.1309 5.86105V11.4999Z" fill="#0E462E"/>
</svg>